<svg xmlns="http://www.w3.org/2000/svg" viewBox="0 0 2254.82 233.49"><defs><style>.cls-1{fill:currentColor;}</style></defs><g id="Layer_2" data-name="Layer 2"><g id="Layer_2-2" data-name="Layer 2"><path class="cls-1" d="M1010.82,67a56.45,56.45,0,0,0,4.06,9.3,61.54,61.54,0,0,0,12.17,15.27c9.37,8.61,20,14.18,30.2,18.68s19.88,8,28.48,12.11,16.15,8.6,21.93,13.9a56.5,56.5,0,0,1,12.63,16.23,41.26,41.26,0,0,1,4.12,13.09c.09.81.2,1.53.24,2.15s0,1.15.06,1.57c0,.85,0,1.3,0,1.3l.12-1.29.15-1.59c0-.62,0-1.35,0-2.18a41.92,41.92,0,0,0-2.55-14,59,59,0,0,0-11.39-18.78,73,73,0,0,0-9.77-9.17,120.84,120.84,0,0,0-12-8.19c-8.56-5.19-18.13-9.73-27.49-14.84s-18.52-11-25.73-18.57a50,50,0,0,1-8.84-12.44,44.54,44.54,0,0,1,2.22-42.24,27.7,27.7,0,0,1,8.58-8.9,23.23,23.23,0,0,1,10.49-3.19,34.89,34.89,0,0,1,11,1,38.3,38.3,0,0,1,9.57,3.83,31,31,0,0,1,12.34,12.23,23.06,23.06,0,0,1,2.35,6.8,20.6,20.6,0,0,1,0,6.51A23.94,23.94,0,0,1,1082.4,51a10.94,10.94,0,0,0-21.69,2.29,11.15,11.15,0,0,0,7.77,10.69h.07a10.68,10.68,0,0,0,8.24-.83,21.32,21.32,0,0,0,6.63-3.91,27.38,27.38,0,0,0,7.91-11.6,27.24,27.24,0,0,0,1.71-9.1A30.91,30.91,0,0,0,1091.25,28,40.16,40.16,0,0,0,1076.16,8.7a48.18,48.18,0,0,0-12.69-6.35A46.4,46.4,0,0,0,1047.91,0a36.68,36.68,0,0,0-17.54,4.81,41.35,41.35,0,0,0-13.89,13.82,57.19,57.19,0,0,0-8,38.46A56.65,56.65,0,0,0,1010.82,67Z"/><path class="cls-1" d="M12.24,195a71.17,71.17,0,0,0,33.53,26.21A77,77,0,0,0,65,225.48a118.43,118.43,0,0,0,16.51,4.9,136.24,136.24,0,0,0,24.87,3c4.65.19,9.52.06,14.6-.19s10.34-.84,15.75-1.71a226.77,226.77,0,0,0,34-8.12c11.73-3.72,23.77-8.37,36-13.63s24.75-11.08,37.52-16.91,25.27-11.38,37.55-16.1a278.46,278.46,0,0,1,36-11.35,247.39,247.39,0,0,1,63.5-6.54,250.63,250.63,0,0,1,43.05,4.93l4,.87,10.41,3.65c4,1.43,8.13,2.86,12.29,4.24A181.92,181.92,0,0,0,477,179.35a91,91,0,0,0,27.61.85,72.16,72.16,0,0,0,13.55-3.27A62.57,62.57,0,0,0,530.7,171a55.6,55.6,0,0,0,10.88-8.76,43.87,43.87,0,0,0,5.13-6.4,37.08,37.08,0,0,0-1.13,7.92,41.36,41.36,0,0,0,5,21c3.64,6.73,9.23,12.17,15.3,16.47,12.14,8.49,26.54,14.13,41.58,17a159.25,159.25,0,0,0,45.7,1.57c15.15-1.55,29.72-4.84,43.52-8.55s26.2-7.69,37.54-11.14,21.6-6.47,31-8.79A238.59,238.59,0,0,1,811.12,184a163.48,163.48,0,0,1,26.15.84c2.78.25,4.78.63,6.15.79,2,.48,4.09.87,6.16,1.16a91,91,0,0,0,27.61-.85,181.92,181.92,0,0,0,25.93-6.81c4.16-1.38,8.25-2.81,12.29-4.24l12-4.2c8-2.71,15.81-5.38,23.59-7.76,31.06-9.73,57.76-14.73,80.1-15.46a191.48,191.48,0,0,1,30.14,1.27c4.44.57,8.59,1.32,12.46,2.16s7.44,1.87,10.74,2.9a88.85,88.85,0,0,1,27,13.76c.45.32.86.64,1.25,1a156.76,156.76,0,0,0-78.72-12.14,146.11,146.11,0,0,0-24.53,4.78,178.25,178.25,0,0,0-21.89,7.88c-6.82,2.91-13.2,5.93-19.26,8.78-12.12,5.75-23,10.75-33.27,14.33-20.49,7.19-40.49,8.75-55,8.52s-24-1.43-24.73,1c-.36,1.14,1.55,3,5.5,5.16a70.65,70.65,0,0,0,17.82,6.22,106.25,106.25,0,0,0,12.93,2l3.59.24c1.22.09,2.46.15,3.72.16l3.83,0,3.94-.13a118.78,118.78,0,0,0,34.07-6.56c11.72-4.1,23.08-10.47,34.61-17.56s23.41-15,37.29-20.95A130,130,0,0,1,1035,163a133.61,133.61,0,0,1,25.52-3.29,130.69,130.69,0,0,1,52.56,9.2l1.67,1.4c1,.77,1.68,1.47,2.27,2l1.77,1.61-1.26-2c-.27-.43-.59-1-1-1.51l.78.33-.8-.37c-.23-.33-.46-.66-.73-1-.75-1-1.6-2.23-2.74-3.5a64.32,64.32,0,0,0-9.45-9.15,86.42,86.42,0,0,0-16.3-10.16,113.85,113.85,0,0,0-11.1-4.58,130.7,130.7,0,0,0-13.1-3.78,168.27,168.27,0,0,0-32-4q-6.94-.21-14.41.15c-1.91-.45-3.78-.91-5.56-1.42a141.87,141.87,0,0,1-24.43-9.54c-3.33-1.59-6.42-3.24-9.19-4.84s-5.19-3.18-7.27-4.51c-4.11-2.69-6.84-4.48-7.8-3.67s.25,4.08,3.73,8.34A44.24,44.24,0,0,0,973,125.3a56,56,0,0,0,9.93,6.07,60.84,60.84,0,0,0,14.81,4.69c-2,.27-4,.56-6,.88l-.93.16c-15.29-.48-27.92-2.65-38.14-6.18a74.68,74.68,0,0,1-14-6.47,66.41,66.41,0,0,1-10.15-7.55c-5.38-4.89-8.06-8.9-9.23-8.34-.53.26-.53,1.61.11,3.86a30.81,30.81,0,0,0,4.57,8.67,47.36,47.36,0,0,0,10.33,10.18,59.57,59.57,0,0,0,15.65,8,67.33,67.33,0,0,0,15.37,3.18q-9.23,2.36-18.86,5.36c-8,2.46-16,5.24-24.1,8.12l-24,8.87q-3.93,1.41-7.85,2.69a84.79,84.79,0,0,1-13.35.47,52.27,52.27,0,0,1-21.55-5.47A36.45,36.45,0,0,1,840.84,149a29.61,29.61,0,0,1-3.43-8.68,26.64,26.64,0,0,1-.57-8.8,21.44,21.44,0,0,1,6.91-14,22.72,22.72,0,0,1,12.94-5.82,19,19,0,0,1,6.51.47,18.3,18.3,0,0,1,5.69,2.51,14.34,14.34,0,0,1,4.07,4.07,12.1,12.1,0,0,1,1.84,5.07,14.92,14.92,0,0,1-2.37,10.31,12,12,0,0,1-3.45,3.37,11.44,11.44,0,0,1-4.24,1.66,8.77,8.77,0,0,1-4-.19,7.63,7.63,0,0,1-3.12-1.87,8.08,8.08,0,0,1-1.91-2.85,6.68,6.68,0,0,1-.4-2.92,7.24,7.24,0,0,1,2.55-4.41c2.41-2,4.58-1.59,4.74-2.26,0-.14,0-.32-.26-.53a4.32,4.32,0,0,0-.46-.33c-.19-.09-.42-.19-.69-.29a6.39,6.39,0,0,0-2.12-.27,9,9,0,0,0-2.87.68,10.33,10.33,0,0,0-5.59,6.19,11.3,11.3,0,0,0-.22,5.62,13.41,13.41,0,0,0,2.65,5.53,13.62,13.62,0,0,0,5.38,4.11,15.1,15.1,0,0,0,7.13,1.08,18,18,0,0,0,7.2-2.18,19.41,19.41,0,0,0,6.09-5.26,22.71,22.71,0,0,0,4.4-16.26,20.49,20.49,0,0,0-3-8.8,22.19,22.19,0,0,0-5.32-5.77,38.71,38.71,0,0,0-9.5-8.53,42.62,42.62,0,0,0-16.55-6.21l-2.38-.33c-.81-.09-1.62-.1-2.44-.15a41,41,0,0,0-15.28,2.06l-1.3.42-1.27.53c-.84.38-1.71.71-2.54,1.13a40.68,40.68,0,0,0-4.88,2.93,44.72,44.72,0,0,0-4.55,3.66,48.17,48.17,0,0,0-4,4.42,46.25,46.25,0,0,0-3.48,5c-.49.9-1,1.8-1.48,2.71s-.87,1.88-1.31,2.83A47.24,47.24,0,0,0,800.45,131a49.18,49.18,0,0,0-.05,13.28,42.77,42.77,0,0,0,4.13,13.19,45.62,45.62,0,0,0,8,11.42,55.9,55.9,0,0,0,10.88,8.76c.49.31,1,.58,1.5.87a125.94,125.94,0,0,0-13.56-2.37c-12.49-1.41-28.91-1.33-48.83,2.09-6.14,1-12.59,2.39-19.36,4q-9.6-.12-18.81-1.16c-12.23-1.38-23.93-3.73-34.52-7.73a75.5,75.5,0,0,1-27.15-17c-7.22-7.22-12.25-15.93-14.27-24.69a44.25,44.25,0,0,1-1-6.59,42.4,42.4,0,0,1,.06-6.48,37.29,37.29,0,0,1,2.92-11.85,29.4,29.4,0,0,1,6.15-9.24,28.66,28.66,0,0,1,8.49-5.89,30.68,30.68,0,0,1,19-2.1,26.32,26.32,0,0,1,8.05,3.22,25.34,25.34,0,0,1,6.2,5.38,19,19,0,0,1,3.51,6.49,15.37,15.37,0,0,1,.44,6.74,19.25,19.25,0,0,1-6.53,11.86,15.16,15.16,0,0,1-5.33,2.91,14.57,14.57,0,0,1-5.72.59,11.22,11.22,0,0,1-4.73-1.5,9.4,9.4,0,0,1-3.13-3.14,10.46,10.46,0,0,1-1.48-4,8.6,8.6,0,0,1,0-1.89,8.71,8.71,0,0,1,.31-1.67,7.85,7.85,0,0,1,1.81-2.84,10.66,10.66,0,0,1,2.6-2c3.66-2,6.58-.94,7.29-2a1.08,1.08,0,0,0,0-1.06,3.37,3.37,0,0,0-.45-.77A8.28,8.28,0,0,0,686,105a9,9,0,0,0-2.92-1.54,12.91,12.91,0,0,0-4.53-.49,15.1,15.1,0,0,0-5.61,1.59,15.53,15.53,0,0,0-5.63,4.82,16.93,16.93,0,0,0-2,3.88,18.67,18.67,0,0,0-1,4.46,21.19,21.19,0,0,0,1.37,9.57,21.76,21.76,0,0,0,6.2,8.78,23.88,23.88,0,0,0,10.19,5,27.92,27.92,0,0,0,11.7.16,29.62,29.62,0,0,0,11.44-5A34.67,34.67,0,0,0,719,114.28a32.24,32.24,0,0,0-.61-14.57,35.67,35.67,0,0,0-6.75-12.9,39.76,39.76,0,0,0-10.92-9.21A40.72,40.72,0,0,0,687,72.78,44.51,44.51,0,0,0,658.29,78a42.16,42.16,0,0,0-19.54,24.27,49.4,49.4,0,0,0-2.27,16,54.4,54.4,0,0,0,.76,8.14,53.23,53.23,0,0,0,2,8,61,61,0,0,0,19.09,26.9,76.84,76.84,0,0,0,14.22,9.29,94.65,94.65,0,0,0,16.12,6.31c11.24,3.27,23.19,4.83,35.56,5.58q8,.48,16.31.35-5.08,1.25-10.4,2.66c-11.62,3.09-24.07,6.8-37.5,10.43s-27.26,6.95-41.23,8.8a157.76,157.76,0,0,1-41.91.3,110.27,110.27,0,0,1-19.89-4.63,95.48,95.48,0,0,1-9.32-3.68l-4.45-2.17c-1.45-.77-2.86-1.56-4.22-2.4-5.44-3.33-10.11-7.39-13.21-12.23a32.94,32.94,0,0,1-5.12-16.17,27,27,0,0,1,8.4-21.3,28.09,28.09,0,0,1,5.88-4.26,24.1,24.1,0,0,1,12.79-3,22.83,22.83,0,0,1,10.92,3.63,25.87,25.87,0,0,1,7.07,6.67,24.58,24.58,0,0,1,3.38,6.59,18.76,18.76,0,0,1,.68,2.64,12.66,12.66,0,0,1,.3,2l.13,1.64s0-.57.05-1.65a13.88,13.88,0,0,0-.1-2,20.78,20.78,0,0,0-.41-2.76,25.84,25.84,0,0,0-2.83-7.22,27.78,27.78,0,0,0-6.89-7.88,25.59,25.59,0,0,0-11.93-5.26,28.14,28.14,0,0,0-15.26,2.15,32.82,32.82,0,0,0-13.22,10.44,40,40,0,0,0,1.45-6.48,48.78,48.78,0,0,0,0-13.28,47.24,47.24,0,0,0-3.47-12.26c-.44-1-.79-1.93-1.31-2.83l-1.47-2.71a47.8,47.8,0,0,0-3.49-5,46.77,46.77,0,0,0-4-4.42,43.65,43.65,0,0,0-4.55-3.66,40.68,40.68,0,0,0-4.88-2.93c-.83-.42-1.7-.75-2.54-1.13l-1.27-.53-1.3-.42a41,41,0,0,0-15.28-2.06c-.82,0-1.63.06-2.44.15l-2.38.33a42.62,42.62,0,0,0-16.55,6.21,39,39,0,0,0-11,10.45A29.39,29.39,0,0,0,473.36,115a22.42,22.42,0,0,0-.08,6.1,22.45,22.45,0,0,0,4.51,13,19.28,19.28,0,0,0,6.09,5.26,18,18,0,0,0,7.2,2.18,15.2,15.2,0,0,0,7.13-1.07,13.84,13.84,0,0,0,5.39-4.12,13.46,13.46,0,0,0,2.64-5.53,11.26,11.26,0,0,0-.22-5.61,10.26,10.26,0,0,0-5.59-6.19,8.64,8.64,0,0,0-2.87-.69,6.39,6.39,0,0,0-2.12.27c-.27.1-.5.2-.69.29a2.62,2.62,0,0,0-.45.34c-.23.21-.31.38-.27.53.16.66,2.33.25,4.74,2.25a7.27,7.27,0,0,1,2.55,4.41,6.64,6.64,0,0,1-.4,2.92,8,8,0,0,1-1.9,2.85,7.56,7.56,0,0,1-3.13,1.87,8.91,8.91,0,0,1-4,.2,11.56,11.56,0,0,1-4.23-1.66,12.18,12.18,0,0,1-3.46-3.37,14.94,14.94,0,0,1-2.37-10.31,12.14,12.14,0,0,1,1.84-5.08,14.47,14.47,0,0,1,4.07-4.07,18.64,18.64,0,0,1,5.69-2.51,19.32,19.32,0,0,1,6.51-.48,22.82,22.82,0,0,1,13,5.81,21.5,21.5,0,0,1,6.94,14,27,27,0,0,1-.56,8.82,29.78,29.78,0,0,1-3.43,8.71A36.45,36.45,0,0,1,501,157.64a52.13,52.13,0,0,1-21.58,5.46,76.69,76.69,0,0,1-8.83-.08c-4.95-1.39-9.89-3-14.84-4.82l-24-8.87c-8.06-2.87-16.08-5.66-24.1-8.12a330,330,0,0,0-39.24-9.84c-2.71-2.15-6-4.71-10-7.4-2.13-1.51-4.52-3-7.05-4.55l-4-2.29c-1.37-.8-2.84-1.49-4.31-2.27a109.85,109.85,0,0,0-20.54-8c-1-.3-1.95-.53-2.95-.74l-3-.69c-2.05-.4-4.15-.72-6.29-1a84.35,84.35,0,0,0-13.42-.63,94.85,94.85,0,0,0-28.76,5.5,143.8,143.8,0,0,0-28.82,14.13c-4.75,2.9-9.37,6.16-14,9.51s-9.2,7-13.74,10.72c-9.06,7.45-18,15.38-27.32,23.11a275.21,275.21,0,0,1-29.17,21.76,143.37,143.37,0,0,1-15.92,8.76c-1.36.68-2.77,1.21-4.15,1.83s-2.77,1.19-4.19,1.71c-2.83,1.07-5.72,2-8.65,2.92-5.87,1.76-11.93,3.21-18.07,4.45a163.88,163.88,0,0,1-18.31,2.74,98.26,98.26,0,0,1-18,0A65.05,65.05,0,0,1,50.92,207a56.87,56.87,0,0,1-26.11-21,55.22,55.22,0,0,1-7.25-15,49,49,0,0,1-2-16.13,52.65,52.65,0,0,1,10.36-29.13,45.93,45.93,0,0,1,10.31-10,40.69,40.69,0,0,1,12.24-5.82,46.68,46.68,0,0,1,25.59.2A40.88,40.88,0,0,1,85,115l1.24.78,1.15.88,1.14.88.57.43.52.49,2.09,1.92c.61.7,1.25,1.36,1.86,2a38.46,38.46,0,0,1,8.5,19.31,30.57,30.57,0,0,1-.22,9.67,27.64,27.64,0,0,1-3,8.36,24.92,24.92,0,0,1-26.94,10.74A17.53,17.53,0,0,1,62,163.28a19.51,19.51,0,0,1-3.27-10.6,15.6,15.6,0,0,1,2.54-8.93,16.34,16.34,0,0,1,11.58-6.89,14.72,14.72,0,0,1,4.34.19,12.84,12.84,0,0,1,2.5.77l.8.34-.72-.49a11.43,11.43,0,0,0-2.39-1.27,15.12,15.12,0,0,0-4.56-1,17.06,17.06,0,0,0-6.72,1,18.16,18.16,0,0,0-7.64,5.09,19.55,19.55,0,0,0-4.64,10.92,24.89,24.89,0,0,0,2.75,14.18,24.23,24.23,0,0,0,5.13,6.67A25.3,25.3,0,0,0,69.39,178a31.53,31.53,0,0,0,19.59.74,33.34,33.34,0,0,0,5.09-1.82,32.5,32.5,0,0,0,5-2.72,31.48,31.48,0,0,0,8.68-8.49A38.42,38.42,0,0,0,112.87,154a42.14,42.14,0,0,0,1.07-13.4A50.38,50.38,0,0,0,103.74,114c-.79-1-1.63-2-2.46-3l-2.71-2.72-.69-.69-.74-.62-1.49-1.25-1.51-1.24-1.61-1.11A53.78,53.78,0,0,0,78.26,96.3a59.85,59.85,0,0,0-33.63-1.11,54.68,54.68,0,0,0-16.84,7.64,60.53,60.53,0,0,0-14,13.25,67.59,67.59,0,0,0-13.74,38,64.52,64.52,0,0,0,2.71,21.45A70.54,70.54,0,0,0,12.24,195ZM813.87,152.3a32.19,32.19,0,0,1-3.69-9.75,39,39,0,0,1,1.61-20.6c.31-.79.54-1.63.92-2.38l1.06-2.31a40.72,40.72,0,0,1,5.62-8.12,36.92,36.92,0,0,1,3.51-3.25,33.63,33.63,0,0,1,3.84-2.7c.66-.4,1.37-.72,2-1.08l1-.54,1.07-.42a35.9,35.9,0,0,1,8.7-2.4,40.82,40.82,0,0,1,4.38-.36c.72,0,1.44,0,2.16,0l2.13.13a38.58,38.58,0,0,1,15.34,4.42c.47.25.93.52,1.39.78a26.81,26.81,0,0,0-9.25-.37,29.83,29.83,0,0,0-17.17,8.77,28.19,28.19,0,0,0-7.95,19.07,33.17,33.17,0,0,0,1.46,10.68,35.3,35.3,0,0,0,4.77,9.87,40.76,40.76,0,0,0,17.42,13.83,56.32,56.32,0,0,0,22.88,4.33c2.25,0,4.52-.13,6.8-.34-3.11.89-6.21,1.68-9.32,2.33a80.19,80.19,0,0,1-23.51,1.72,60.32,60.32,0,0,1-11.28-2.19,50.17,50.17,0,0,1-10.44-4.3C822.89,163.5,817.31,158.5,813.87,152.3ZM479.49,165a56.34,56.34,0,0,0,22.91-4.34,40.73,40.73,0,0,0,17.45-13.87,35.48,35.48,0,0,0,4.77-9.9,33,33,0,0,0,1.45-10.7,28.65,28.65,0,0,0-2.24-10.44,28.32,28.32,0,0,0-5.75-8.64,29.72,29.72,0,0,0-17.19-8.76,26.45,26.45,0,0,0-9.44.41,25.71,25.71,0,0,0-8.5,3.65,24.28,24.28,0,0,0-3,2.39,36.25,36.25,0,0,1,10.6-8.51,38.58,38.58,0,0,1,15.34-4.42l2.13-.13c.72,0,1.44,0,2.16,0a40.61,40.61,0,0,1,4.38.36,35.78,35.78,0,0,1,8.7,2.4l1.07.42,1,.54c.68.36,1.39.68,2.06,1.08a34.42,34.42,0,0,1,3.83,2.7,37,37,0,0,1,3.52,3.25,39.4,39.4,0,0,1,3,3.85,38.18,38.18,0,0,1,2.59,4.27l1.06,2.31c.38.75.61,1.59.92,2.38a38.9,38.9,0,0,1,2.2,10.13,39.53,39.53,0,0,1-.58,10.47,32.11,32.11,0,0,1-3.7,9.75c-3.44,6.2-9,11.2-15.52,14.8a50.69,50.69,0,0,1-10.44,4.29A60.32,60.32,0,0,1,503,167a80.22,80.22,0,0,1-23.51-1.72c-.41-.08-.82-.18-1.22-.27ZM87.13,225.21a172.11,172.11,0,0,0,19.79-3.46c6.43-1.47,12.81-3.18,19.13-5.28q4.74-1.58,9.4-3.48c1.55-.63,3.08-1.32,4.59-2s3.05-1.37,4.51-2.16a153.59,153.59,0,0,0,17-10.06A277.48,277.48,0,0,0,191.11,175c9.15-8.22,17.78-16.48,26.38-24.16,4.28-3.85,8.6-7.5,12.91-11s8.68-6.79,13.11-9.77a140.12,140.12,0,0,1,26.81-14.74,90.3,90.3,0,0,1,26.84-6.54,79.7,79.7,0,0,1,12.73-.07c2.05.21,4.07.41,6.05.69l2.93.5c1,.15,1.93.32,2.87.56a108.57,108.57,0,0,1,20.36,6.64c1.49.69,3,1.29,4.35,2l4.06,2c2.57,1.41,5,2.72,7.2,4.08,3.49,2.08,6.48,4.09,9,5.86-1.46-.26-2.92-.52-4.37-.75a209.25,209.25,0,0,0-39.26-2.77,168.28,168.28,0,0,0-32,4,130.7,130.7,0,0,0-13.1,3.78,114.89,114.89,0,0,0-11.1,4.58A86.42,86.42,0,0,0,250.57,150a64.32,64.32,0,0,0-9.45,9.15c-1.14,1.27-2,2.5-2.74,3.5a30.67,30.67,0,0,0-1.73,2.56l-1.26,2.05,1.77-1.61c.59-.54,1.31-1.24,2.27-2s2-1.73,3.35-2.69a88.77,88.77,0,0,1,27-13.76c3.31-1,6.87-2,10.74-2.9s8-1.59,12.46-2.16a191.48,191.48,0,0,1,30.14-1.27c22.34.73,49.05,5.73,80.1,15.46,4.49,1.38,9,2.85,13.56,4.37a237.73,237.73,0,0,0-35.28-5.4,233.73,233.73,0,0,0-64.92,4.23,262.32,262.32,0,0,0-37.07,10.84c-12.56,4.62-25.25,10.13-38.08,16s-25.23,11.78-37.3,17.15-23.82,10.21-35.22,14.18a241.05,241.05,0,0,1-32.94,9c-5.25,1-10.36,1.72-15.29,2.29s-9.7.81-14.24.83a140.5,140.5,0,0,1-24.5-1.67c-4-.65-7.73-1.46-11.07-2.32A111.7,111.7,0,0,0,87.13,225.21Z"/><path class="cls-1" d="M781.87,141.07A88.8,88.8,0,0,0,788,152.64a107.16,107.16,0,0,0,8.5,11.55,33.8,33.8,0,0,1-5.07-13,42,42,0,0,1-.16-11.82c.76-7.49,2.33-13.23,2.73-17.77.19-2.3.35-4.37.43-6.29,0-1,.09-1.86.07-2.77s0-1.75,0-2.54c-.11-3.24-.38-6.2-2.21-7.84a4.17,4.17,0,0,0-3.66-.81,7.52,7.52,0,0,0-2.41.92,11.22,11.22,0,0,0-1.31.82c-.41.32-.84.68-1.27,1.08-3.52,3.16-6.4,9.26-6.94,15.84a30.08,30.08,0,0,0,1.11,10.26A70.86,70.86,0,0,0,781.87,141.07Z"/><path class="cls-1" d="M750.17,173.57c5.16-.7,10.47-3.58,16.86-6.06a40.47,40.47,0,0,1,10.68-2.72,26.58,26.58,0,0,1,6.16.1,24.16,24.16,0,0,1,6.42,1.89,61.32,61.32,0,0,0-6-3.28,65.64,65.64,0,0,0-6.09-2.45,97.42,97.42,0,0,0-11.67-3.27,92.28,92.28,0,0,0-10.25-1.71,36.2,36.2,0,0,0-8.45,0c-10.18,1.43-17.91,6.51-17.26,11.35S740,175,750.17,173.57Z"/><path class="cls-1" d="M1068.85,189.09c3.7-2.39,7.41-5.08,11.66-7.6,2.13-1.28,4.38-2.47,6.79-3.61a53.06,53.06,0,0,1,7.77-2.81,36.17,36.17,0,0,1,8.86-1.17,28.89,28.89,0,0,1,9.59,1.58,51.69,51.69,0,0,0-18.82-4.16c-3-.12-6-.06-8.9.1s-5.64.45-8.28.82a138.56,138.56,0,0,0-14.45,2.77,91.66,91.66,0,0,0-11.4,3.48c-3.32,1.3-6.34,2.62-9,3.85s-5.09,2.38-7.15,3.51c-4.06,2.21-7,4.27-7,6.75,0,1.22.73,2.37,2.24,3.4a16,16,0,0,0,6.56,2.23,34.68,34.68,0,0,0,9.69-.2,51.72,51.72,0,0,0,11-3A62.5,62.5,0,0,0,1068.85,189.09Z"/><path class="cls-1" d="M1171.4,59.21a21.32,21.32,0,0,0,6.63,3.91,10.65,10.65,0,0,0,8.23.83h.08a11.2,11.2,0,0,0-3.19-21.86A11,11,0,0,0,1172.42,51a23.94,23.94,0,0,1-1.45-5.44,20.6,20.6,0,0,1,0-6.51,23.06,23.06,0,0,1,2.35-6.8A31,31,0,0,1,1185.66,20a38.3,38.3,0,0,1,9.57-3.83,34.89,34.89,0,0,1,11-1,23.23,23.23,0,0,1,10.49,3.19,27.7,27.7,0,0,1,8.58,8.9,44.12,44.12,0,0,1,2.22,42.24,50,50,0,0,1-8.84,12.44c-7.21,7.58-16.43,13.49-25.73,18.57s-18.93,9.65-27.49,14.84a120.84,120.84,0,0,0-12,8.19,73,73,0,0,0-9.77,9.17,59,59,0,0,0-11.39,18.78,41.92,41.92,0,0,0-2.55,14c0,.83,0,1.56,0,2.18l.15,1.59.12,1.29s0-.45,0-1.3c0-.42,0-.95.06-1.57s.15-1.34.24-2.15a41.26,41.26,0,0,1,4.12-13.09,56.5,56.5,0,0,1,12.63-16.23c5.78-5.3,13.32-9.85,21.93-13.9s18.31-7.64,28.48-12.11,20.83-10.07,30.2-18.68a61.54,61.54,0,0,0,12.17-15.27,55.33,55.33,0,0,0,6.35-19.16,57.19,57.19,0,0,0-8-38.46,41.35,41.35,0,0,0-13.89-13.82A36.68,36.68,0,0,0,1206.91,0a46.4,46.4,0,0,0-15.56,2.34,48.18,48.18,0,0,0-12.69,6.35A40.24,40.24,0,0,0,1163.56,28a31.4,31.4,0,0,0-1.79,10.55,27.49,27.49,0,0,0,1.72,9.1A27.38,27.38,0,0,0,1171.4,59.21Z"/><path class="cls-1" d="M1458.3,164.19a107.16,107.16,0,0,0,8.5-11.55,88.8,88.8,0,0,0,6.15-11.57,70.86,70.86,0,0,0,4-10.76,29.82,29.82,0,0,0,1.1-10.26c-.53-6.58-3.41-12.68-6.93-15.84-.43-.4-.86-.76-1.27-1.08a11.22,11.22,0,0,0-1.31-.82,7.52,7.52,0,0,0-2.41-.92,4.17,4.17,0,0,0-3.66.81c-1.83,1.64-2.1,4.6-2.21,7.84,0,.79,0,1.69,0,2.54s.06,1.79.07,2.77c.08,1.92.24,4,.43,6.29.4,4.54,2,10.28,2.73,17.77a42,42,0,0,1-.16,11.82A33.8,33.8,0,0,1,1458.3,164.19Z"/><path class="cls-1" d="M1470.56,163.5a62.63,62.63,0,0,0-6,3.28,24.33,24.33,0,0,1,6.43-1.89,26.58,26.58,0,0,1,6.16-.1,40.47,40.47,0,0,1,10.68,2.72c6.39,2.48,11.7,5.36,16.86,6.06,10.19,1.42,19-1.34,19.63-6.18S1517.2,157.47,1507,156a36.2,36.2,0,0,0-8.45,0,92.28,92.28,0,0,0-10.25,1.71,97.42,97.42,0,0,0-11.67,3.27A65.64,65.64,0,0,0,1470.56,163.5Z"/><path class="cls-1" d="M1217.57,198.23a16,16,0,0,0,6.56-2.23c1.51-1,2.26-2.18,2.24-3.4-.07-2.48-3-4.54-7-6.75-2.06-1.13-4.45-2.28-7.15-3.51s-5.72-2.55-9-3.85a91.66,91.66,0,0,0-11.4-3.48,138.56,138.56,0,0,0-14.45-2.77c-2.65-.37-5.42-.63-8.28-.82s-5.85-.22-8.9-.1a51.69,51.69,0,0,0-18.82,4.16,28.89,28.89,0,0,1,9.59-1.58,36.17,36.17,0,0,1,8.86,1.17,53.06,53.06,0,0,1,7.77,2.81c2.41,1.14,4.66,2.33,6.79,3.61,4.25,2.52,8,5.21,11.66,7.6a62.5,62.5,0,0,0,11,5.91,51.72,51.72,0,0,0,11,3A34.68,34.68,0,0,0,1217.57,198.23Z"/><path class="cls-1" d="M1127.41,122.55h.44v0a26.9,26.9,0,0,0,0-53.73v0H1127v0a26.9,26.9,0,0,0,0,53.73v0Z"/><path class="cls-1" d="M1238.18,134.32q-7.46-.36-14.41-.15a168.27,168.27,0,0,0-32,4,130.7,130.7,0,0,0-13.1,3.78,113.85,113.85,0,0,0-11.1,4.58,86.42,86.42,0,0,0-16.3,10.16,64.32,64.32,0,0,0-9.45,9.15c-1.14,1.27-2,2.5-2.74,3.5-.27.35-.51.68-.73,1l-.8.37.78-.33c-.39.56-.71,1.08-1,1.51l-1.26,2,1.77-1.61c.59-.54,1.31-1.24,2.27-2l1.67-1.4a130.69,130.69,0,0,1,52.56-9.2,133.61,133.61,0,0,1,25.52,3.29,130,130,0,0,1,22.46,7.42c13.88,6,25.71,13.92,37.29,20.95s22.89,13.46,34.61,17.56a118.78,118.78,0,0,0,34.07,6.56l3.94.13,3.83,0c1.26,0,2.5-.07,3.72-.16l3.59-.24a106.25,106.25,0,0,0,12.93-2,70.65,70.65,0,0,0,17.82-6.22c4-2.16,5.86-4,5.5-5.16-.76-2.47-10.16-1.19-24.73-1s-34.53-1.33-55-8.52c-10.24-3.58-21.15-8.58-33.27-14.33-6.07-2.85-12.44-5.87-19.26-8.78a178.25,178.25,0,0,0-21.89-7.88,146.11,146.11,0,0,0-24.53-4.78,156.76,156.76,0,0,0-78.72,12.14c.39-.32.8-.64,1.25-1a88.85,88.85,0,0,1,27-13.76c3.3-1,6.87-2,10.74-2.9s8-1.59,12.46-2.16a191.48,191.48,0,0,1,30.14-1.27c22.34.73,49,5.73,80.1,15.46,7.78,2.38,15.64,5.05,23.59,7.76l12,4.2c4,1.43,8.12,2.86,12.29,4.24a181.92,181.92,0,0,0,25.93,6.81,91,91,0,0,0,27.61.85c2.07-.29,4.13-.68,6.16-1.16,1.36-.16,3.37-.54,6.15-.79a163.42,163.42,0,0,1,26.15-.84,238.59,238.59,0,0,1,45.94,7.26c9.38,2.32,19.65,5.32,31,8.79s23.73,7.4,37.54,11.14,28.37,7,43.52,8.55a159.25,159.25,0,0,0,45.7-1.57c15-2.87,29.44-8.51,41.57-17,6.08-4.3,11.67-9.74,15.31-16.47a41.36,41.36,0,0,0,5-21,37.08,37.08,0,0,0-1.13-7.92,43.87,43.87,0,0,0,5.13,6.4,55.6,55.6,0,0,0,10.88,8.76,62.57,62.57,0,0,0,12.58,5.93,72.16,72.16,0,0,0,13.55,3.27,91,91,0,0,0,27.61-.85,181.92,181.92,0,0,0,25.93-6.81c4.16-1.38,8.25-2.81,12.29-4.24l10.41-3.65,4-.87a250.63,250.63,0,0,1,43-4.93,247.39,247.39,0,0,1,63.5,6.54,278.46,278.46,0,0,1,36,11.35c12.28,4.72,24.77,10.26,37.55,16.1s25.25,11.67,37.52,16.91,24.29,9.91,36,13.63a226.77,226.77,0,0,0,34,8.12c5.41.87,10.69,1.35,15.75,1.71s9.95.38,14.6.19a136.24,136.24,0,0,0,24.87-3,118.43,118.43,0,0,0,16.51-4.9,77,77,0,0,0,19.21-4.32,71.6,71.6,0,0,0,43-45.6,64.52,64.52,0,0,0,2.71-21.45,67.59,67.59,0,0,0-13.74-38,60.53,60.53,0,0,0-14-13.25,54.68,54.68,0,0,0-16.84-7.64,59.85,59.85,0,0,0-33.63,1.11,53.78,53.78,0,0,0-14.27,7.15l-1.61,1.11-1.51,1.24-1.49,1.25-.74.62-.69.69-2.71,2.72c-.83,1-1.67,2-2.46,3a50.38,50.38,0,0,0-10.2,26.51A42.14,42.14,0,0,0,2142,154a38.42,38.42,0,0,0,5.17,11.78,31.48,31.48,0,0,0,8.68,8.49,32.5,32.5,0,0,0,4.95,2.72,33.34,33.34,0,0,0,5.09,1.82,31.53,31.53,0,0,0,19.59-.74,25.42,25.42,0,0,0,7.74-4.79,24.23,24.23,0,0,0,5.13-6.67,25,25,0,0,0,2.75-14.18,19.55,19.55,0,0,0-4.64-10.92,18.16,18.16,0,0,0-7.64-5.09,17.06,17.06,0,0,0-6.72-1,15.12,15.12,0,0,0-4.56,1,11.43,11.43,0,0,0-2.39,1.27l-.72.49.8-.34a12.84,12.84,0,0,1,2.5-.77,14.72,14.72,0,0,1,4.34-.19,16.34,16.34,0,0,1,11.58,6.89,15.6,15.6,0,0,1,2.54,8.93,19.51,19.51,0,0,1-3.27,10.6,17.53,17.53,0,0,1-9.94,7.25A24.92,24.92,0,0,1,2156,159.79a27.64,27.64,0,0,1-3-8.36,30.57,30.57,0,0,1-.22-9.67,38.46,38.46,0,0,1,8.5-19.31c.61-.69,1.25-1.35,1.86-2l2.09-1.92.52-.49.57-.43,1.14-.88,1.15-.88,1.24-.78a40.88,40.88,0,0,1,10.94-5,46.68,46.68,0,0,1,25.59-.2,40.69,40.69,0,0,1,12.24,5.82,45.93,45.93,0,0,1,10.31,10,52.73,52.73,0,0,1,10.36,29.13,49,49,0,0,1-2,16.13,55.22,55.22,0,0,1-7.25,15,56.87,56.87,0,0,1-26.11,21,65,65,0,0,1-16.88,3.94,98.15,98.15,0,0,1-18,0,163.88,163.88,0,0,1-18.31-2.74c-6.14-1.24-12.2-2.69-18.07-4.45-2.93-.89-5.82-1.85-8.65-2.92-1.42-.52-2.81-1.1-4.19-1.71s-2.8-1.15-4.15-1.83a143.37,143.37,0,0,1-15.92-8.76,275.21,275.21,0,0,1-29.17-21.76c-9.28-7.73-18.26-15.66-27.32-23.11-4.54-3.74-9.14-7.3-13.74-10.72s-9.27-6.61-14-9.51a143.8,143.8,0,0,0-28.82-14.13,94.85,94.85,0,0,0-28.76-5.5,84.29,84.29,0,0,0-13.42.63c-2.14.33-4.24.65-6.29,1l-3,.69c-1,.21-2,.44-3,.74a109.85,109.85,0,0,0-20.54,8c-1.47.78-2.94,1.47-4.31,2.27l-4,2.29c-2.53,1.58-4.92,3-7.05,4.55-4,2.69-7.27,5.25-10,7.4a330,330,0,0,0-39.24,9.84c-8,2.46-16,5.25-24.1,8.12l-24,8.87c-5,1.78-9.89,3.43-14.84,4.82a76.69,76.69,0,0,1-8.83.08,52.13,52.13,0,0,1-21.58-5.46A36.45,36.45,0,0,1,1739,144.11a29.78,29.78,0,0,1-3.43-8.71,27,27,0,0,1-.56-8.82,21.5,21.5,0,0,1,6.94-14,22.82,22.82,0,0,1,13-5.81,19.32,19.32,0,0,1,6.51.48,18.64,18.64,0,0,1,5.69,2.51,14.47,14.47,0,0,1,4.07,4.07,12.14,12.14,0,0,1,1.84,5.08,14.94,14.94,0,0,1-2.37,10.31,12.18,12.18,0,0,1-3.46,3.37,11.56,11.56,0,0,1-4.23,1.66,8.91,8.91,0,0,1-4-.2,7.56,7.56,0,0,1-3.13-1.87,8,8,0,0,1-1.9-2.85,6.64,6.64,0,0,1-.4-2.92,7.27,7.27,0,0,1,2.55-4.41c2.41-2,4.58-1.59,4.74-2.25,0-.15,0-.32-.27-.53a2.62,2.62,0,0,0-.45-.34c-.19-.09-.42-.19-.69-.29a6.39,6.39,0,0,0-2.12-.27,8.75,8.75,0,0,0-2.88.69,10.28,10.28,0,0,0-5.58,6.19,11.37,11.37,0,0,0-.23,5.61,13.6,13.6,0,0,0,2.65,5.53,13.84,13.84,0,0,0,5.39,4.12,15.2,15.2,0,0,0,7.13,1.07,18,18,0,0,0,7.2-2.18,19.28,19.28,0,0,0,6.09-5.26,22.37,22.37,0,0,0,4.5-13,22,22,0,0,0-.07-6.1,29.39,29.39,0,0,0-4.45-11.47,39,39,0,0,0-11-10.45,42.62,42.62,0,0,0-16.55-6.21l-2.39-.33c-.8-.09-1.61-.1-2.43-.15a41.11,41.11,0,0,0-15.29,2.06l-1.29.42-1.27.53c-.84.38-1.71.71-2.54,1.13a40.68,40.68,0,0,0-4.88,2.93,43.65,43.65,0,0,0-4.55,3.66,46.77,46.77,0,0,0-4,4.42,47.8,47.8,0,0,0-3.49,5l-1.47,2.71c-.52.9-.87,1.88-1.31,2.83a47.24,47.24,0,0,0-3.47,12.26,48.78,48.78,0,0,0,0,13.28,41.1,41.1,0,0,0,1.44,6.48,32.72,32.72,0,0,0-13.21-10.44,28.14,28.14,0,0,0-15.26-2.15,25.59,25.59,0,0,0-11.93,5.26,27.78,27.78,0,0,0-6.89,7.88,25.84,25.84,0,0,0-2.83,7.22,20.78,20.78,0,0,0-.41,2.76,13.88,13.88,0,0,0-.1,2c0,1.08,0,1.65,0,1.65s0-.56.13-1.64a12.66,12.66,0,0,1,.3-2,18.76,18.76,0,0,1,.68-2.64,24.81,24.81,0,0,1,3.37-6.59,26.06,26.06,0,0,1,7.08-6.67,22.83,22.83,0,0,1,10.92-3.63,24.1,24.1,0,0,1,12.79,3,28.09,28.09,0,0,1,5.88,4.26,27,27,0,0,1,8.4,21.3,32.94,32.94,0,0,1-5.12,16.17c-3.1,4.84-7.77,8.9-13.21,12.23-1.36.84-2.77,1.63-4.22,2.4l-4.45,2.17a95.48,95.48,0,0,1-9.32,3.68,110.27,110.27,0,0,1-19.89,4.63,157.76,157.76,0,0,1-41.91-.3c-14-1.85-27.81-5.19-41.23-8.8s-25.88-7.34-37.5-10.43q-5.33-1.42-10.4-2.66,8.28.12,16.31-.35c12.37-.75,24.32-2.31,35.56-5.58a94.65,94.65,0,0,0,16.12-6.31,76.84,76.84,0,0,0,14.22-9.29,61,61,0,0,0,19.09-26.9,53.23,53.23,0,0,0,2-8,54.4,54.4,0,0,0,.76-8.14,49.4,49.4,0,0,0-2.27-16A42.16,42.16,0,0,0,1596.53,78a44.51,44.51,0,0,0-28.74-5.25,40.72,40.72,0,0,0-13.7,4.82,39.76,39.76,0,0,0-10.92,9.21,35.67,35.67,0,0,0-6.75,12.9,32.24,32.24,0,0,0-.61,14.57,34.67,34.67,0,0,0,13.8,22.06,29.62,29.62,0,0,0,11.44,5,27.92,27.92,0,0,0,11.7-.16,23.88,23.88,0,0,0,10.19-5,21.76,21.76,0,0,0,6.2-8.78,21.19,21.19,0,0,0,1.37-9.57,18.67,18.67,0,0,0-1-4.46,16.93,16.93,0,0,0-2-3.88,15.53,15.53,0,0,0-5.63-4.82,15.1,15.1,0,0,0-5.61-1.59,12.91,12.91,0,0,0-4.53.49,9,9,0,0,0-2.92,1.54,8.28,8.28,0,0,0-.84.83,3.37,3.37,0,0,0-.45.77,1.08,1.08,0,0,0,0,1.06c.71,1.09,3.63.06,7.29,2a10.66,10.66,0,0,1,2.6,2,7.85,7.85,0,0,1,1.81,2.84,8.71,8.71,0,0,1,.31,1.67,8.6,8.6,0,0,1,0,1.89,10.46,10.46,0,0,1-1.48,4,9.4,9.4,0,0,1-3.13,3.14,11.22,11.22,0,0,1-4.73,1.5,14.57,14.57,0,0,1-5.72-.59,15.16,15.16,0,0,1-5.33-2.91,19.25,19.25,0,0,1-6.53-11.86,15.37,15.37,0,0,1,.44-6.74,19,19,0,0,1,3.51-6.49,25.16,25.16,0,0,1,6.2-5.38,26.32,26.32,0,0,1,8-3.22,30.68,30.68,0,0,1,19,2.1,28.79,28.79,0,0,1,8.49,5.89,29.4,29.4,0,0,1,6.15,9.24,37.29,37.29,0,0,1,2.92,11.85,42.4,42.4,0,0,1,.06,6.48,44.25,44.25,0,0,1-1,6.59c-2,8.76-7,17.47-14.28,24.69s-16.57,13-27.14,17-22.29,6.35-34.52,7.73q-9.2,1-18.81,1.16c-6.77-1.61-13.22-3-19.36-4-19.92-3.42-36.34-3.5-48.83-2.09a125.94,125.94,0,0,0-13.56,2.37c.5-.29,1-.56,1.5-.87a55.9,55.9,0,0,0,10.88-8.76,45.62,45.62,0,0,0,8-11.42,43,43,0,0,0,4.13-13.19,49.18,49.18,0,0,0-.05-13.28,47.24,47.24,0,0,0-3.47-12.26c-.44-1-.79-1.93-1.31-2.83s-1-1.81-1.48-2.71a46.25,46.25,0,0,0-3.48-5,48.17,48.17,0,0,0-4-4.42,44.72,44.72,0,0,0-4.55-3.66,40.68,40.68,0,0,0-4.88-2.93c-.83-.42-1.7-.75-2.54-1.13l-1.27-.53-1.3-.42A41,41,0,0,0,1410.81,93c-.82,0-1.63.06-2.44.15l-2.38.33a42.62,42.62,0,0,0-16.55,6.21,38.71,38.71,0,0,0-9.5,8.53,22.19,22.19,0,0,0-5.32,5.77,20.64,20.64,0,0,0-3,8.8,22.77,22.77,0,0,0,4.41,16.26,19.41,19.41,0,0,0,6.09,5.26,18,18,0,0,0,7.2,2.18,15.1,15.1,0,0,0,7.13-1.08,13.62,13.62,0,0,0,5.38-4.11,13.41,13.41,0,0,0,2.65-5.53,11.41,11.41,0,0,0-.22-5.62,10.33,10.33,0,0,0-5.59-6.19,9,9,0,0,0-2.87-.68,6.39,6.39,0,0,0-2.12.27c-.27.1-.5.2-.69.29a4.32,4.32,0,0,0-.46.33c-.22.21-.31.39-.26.53.16.67,2.33.26,4.74,2.26a7.24,7.24,0,0,1,2.55,4.41,6.68,6.68,0,0,1-.4,2.92,8.08,8.08,0,0,1-1.91,2.85,7.63,7.63,0,0,1-3.12,1.87,8.78,8.78,0,0,1-4,.19,11.44,11.44,0,0,1-4.24-1.66,12,12,0,0,1-3.45-3.37A14.92,14.92,0,0,1,1380,123.9a12.1,12.1,0,0,1,1.84-5.07,14.34,14.34,0,0,1,4.07-4.07,18.3,18.3,0,0,1,5.69-2.51,19,19,0,0,1,6.51-.47,22.72,22.72,0,0,1,12.94,5.82,21.44,21.44,0,0,1,6.91,14,26.64,26.64,0,0,1-.57,8.8A29.61,29.61,0,0,1,1414,149a36.45,36.45,0,0,1-14.79,13.48,52.27,52.27,0,0,1-21.55,5.47,84.79,84.79,0,0,1-13.35-.47q-3.91-1.28-7.85-2.69l-24-8.87c-8.06-2.88-16.08-5.66-24.1-8.12q-9.64-3-18.86-5.36a67.33,67.33,0,0,0,15.37-3.18,59.57,59.57,0,0,0,15.65-8,47.36,47.36,0,0,0,10.33-10.18,30.47,30.47,0,0,0,4.56-8.67c.65-2.25.65-3.6.12-3.86-1.17-.56-3.85,3.45-9.23,8.34a66.41,66.41,0,0,1-10.15,7.55,74.68,74.68,0,0,1-14,6.47c-10.22,3.53-22.85,5.7-38.14,6.18l-.93-.16c-2-.32-4-.61-6-.88a61,61,0,0,0,14.81-4.69,56,56,0,0,0,9.93-6.07,44.24,44.24,0,0,0,6.91-6.62c3.48-4.26,4.62-7.6,3.73-8.34s-3.69,1-7.8,3.67c-2.08,1.33-4.51,2.9-7.27,4.51s-5.86,3.25-9.19,4.84a141.87,141.87,0,0,1-24.43,9.54C1242,133.41,1240.09,133.87,1238.18,134.32Zm613.47,22c31-9.73,57.76-14.73,80.1-15.46a191.48,191.48,0,0,1,30.14,1.27c4.44.57,8.59,1.32,12.46,2.16s7.43,1.87,10.74,2.9A88.77,88.77,0,0,1,2012,161c1.35,1,2.4,1.92,3.35,2.69s1.68,1.47,2.27,2l1.77,1.61-1.26-2.05a30.67,30.67,0,0,0-1.73-2.56c-.76-1-1.6-2.23-2.74-3.5a64.32,64.32,0,0,0-9.45-9.15,86.42,86.42,0,0,0-16.3-10.16,114.89,114.89,0,0,0-11.1-4.58,130.7,130.7,0,0,0-13.1-3.78,168.38,168.38,0,0,0-32-4,209.25,209.25,0,0,0-39.26,2.77c-1.45.23-2.91.49-4.37.75,2.55-1.77,5.54-3.78,9-5.86,2.19-1.36,4.63-2.67,7.2-4.08l4.06-2c1.38-.7,2.86-1.3,4.35-2a108.57,108.57,0,0,1,20.36-6.64c.94-.24,1.9-.41,2.87-.56l2.93-.5c2-.28,4-.48,6-.69a79.7,79.7,0,0,1,12.73.07,90.3,90.3,0,0,1,26.84,6.54,140.12,140.12,0,0,1,26.81,14.74c4.43,3,8.75,6.34,13.11,9.77s8.63,7.15,12.91,11c8.6,7.68,17.23,15.94,26.38,24.16a277.48,277.48,0,0,0,29.6,23.74,153.59,153.59,0,0,0,17,10.06c1.46.79,3,1.44,4.51,2.16s3,1.41,4.59,2q4.65,1.9,9.4,3.48c6.32,2.1,12.7,3.81,19.13,5.28a172.11,172.11,0,0,0,19.79,3.46,111.7,111.7,0,0,0,16.31.65c-3.34.86-7,1.67-11.07,2.32a140.5,140.5,0,0,1-24.5,1.67c-4.54,0-9.3-.38-14.24-.83s-10-1.25-15.29-2.29a241.05,241.05,0,0,1-32.94-9c-11.4-4-23.16-8.79-35.22-14.18s-24.46-11.29-37.3-17.15-25.52-11.37-38.08-16a262.32,262.32,0,0,0-37.07-10.84,233.73,233.73,0,0,0-64.92-4.23,237.73,237.73,0,0,0-35.28,5.4C1842.64,159.19,1847.16,157.72,1851.65,156.34Zm-141.39-30.89a38.9,38.9,0,0,1,2.2-10.13c.31-.79.54-1.63.92-2.38l1.06-2.31a38.18,38.18,0,0,1,2.59-4.27,39.4,39.4,0,0,1,3-3.85,37,37,0,0,1,3.52-3.25,34.42,34.42,0,0,1,3.83-2.7c.67-.4,1.38-.72,2.06-1.08l1-.54,1.07-.42a35.78,35.78,0,0,1,8.7-2.4,40.61,40.61,0,0,1,4.38-.36c.72,0,1.44-.05,2.16,0l2.13.13a38.58,38.58,0,0,1,15.34,4.42,36.25,36.25,0,0,1,10.6,8.51,24.28,24.28,0,0,0-3-2.39,25.71,25.71,0,0,0-8.5-3.65,26.45,26.45,0,0,0-9.44-.41,29.72,29.72,0,0,0-17.19,8.76,28.32,28.32,0,0,0-5.75,8.64,28.65,28.65,0,0,0-2.24,10.44,33,33,0,0,0,1.45,10.7,35.48,35.48,0,0,0,4.77,9.9,40.73,40.73,0,0,0,17.45,13.87,56.34,56.34,0,0,0,22.91,4.34l1.18,0c-.4.09-.81.19-1.22.27a80.22,80.22,0,0,1-23.51,1.72,60.32,60.32,0,0,1-11.28-2.19,50.69,50.69,0,0,1-10.44-4.29c-6.51-3.6-12.08-8.6-15.52-14.8a32.11,32.11,0,0,1-3.7-9.75A39.53,39.53,0,0,1,1710.26,125.45Zm-332.58,44.42a56.36,56.36,0,0,0,22.88-4.33A40.76,40.76,0,0,0,1418,151.71a35.3,35.3,0,0,0,4.77-9.87,33.17,33.17,0,0,0,1.46-10.68,28.19,28.19,0,0,0-8-19.07,29.83,29.83,0,0,0-17.17-8.77,26.81,26.81,0,0,0-9.25.37c.45-.26.92-.53,1.39-.78a38.58,38.58,0,0,1,15.34-4.42l2.13-.13c.71,0,1.44,0,2.16,0a40.82,40.82,0,0,1,4.38.36,35.9,35.9,0,0,1,8.7,2.4l1.07.42,1,.54c.68.36,1.39.68,2,1.08a33.63,33.63,0,0,1,3.84,2.7,36.92,36.92,0,0,1,3.51,3.25,39.49,39.49,0,0,1,3,3.85,41.43,41.43,0,0,1,2.59,4.27l1.06,2.31c.38.75.61,1.59.92,2.38a39,39,0,0,1,1.61,20.6,32.19,32.19,0,0,1-3.69,9.75c-3.44,6.2-9,11.2-15.52,14.79a50.17,50.17,0,0,1-10.44,4.3,60.32,60.32,0,0,1-11.28,2.19,80.19,80.19,0,0,1-23.51-1.72c-3.11-.65-6.21-1.44-9.32-2.33C1373.16,169.74,1375.43,169.86,1377.68,169.87Z"/></g></g></svg>
