<svg xmlns="http://www.w3.org/2000/svg" viewBox="0 0 435.63 174.74"><g><g><path style="fill:#a3b578;fill-opacity:0.15;stroke:#c8d3ac;stroke-miterlimit:10;stroke-width:2px" d="M1.65,43.87c8,.66,35.41,0,70.35,8.94,9.91,2.55,25.88,6.42,42.75,12.53A224.15,224.15,0,0,0,148.61,87c6.69,3.52,19.43,8.59,32.17,13.36,2.64,3,5.11,5.63,7.17,7.65,1.3,1.28,3.23,2.92,5.49,4.73-17.94-2.44-43-6.18-65.42-10.7a390.67,390.67,0,0,1-62.2-18.16C32,71.28,5.94,48.79,1.12,44.48a.36.36,0,0,1,.28-.63Z"/><path style="fill:#a3b578;fill-opacity:0.15;stroke:#c8d3ac;stroke-miterlimit:10;stroke-width:2px" d="M106.49,58.42a144,144,0,0,1-12.87-13C88.06,39,74.74,24.67,70.72,15.56c-.15-.34.09-.69.43-.55,5.53,2.3,28.45,11.87,36.68,15.56,9.23,4.14,27.45,13,36,18.33,1.44.89,3.27,2.13,5.34,3.59,3.39,8.11,6.86,13.37,10.11,19.27,4.18,7.59,13.56,19.64,21.46,28.6C168,95.59,155.3,90.52,148.61,87,136.94,80.85,121.06,71.45,106.49,58.42Z"/><line style="fill:#a3b578;fill-opacity:0.15;stroke:#c8d3ac;stroke-miterlimit:10;stroke-width:3px" x1="217.81" y1="130.71" x2="217.81" y2="174.74"/><path style="fill:#a3b578;fill-opacity:0.15;stroke:#c8d3ac;stroke-miterlimit:10;stroke-width:2px" d="M217.81,130.66S241,114.57,247.68,108c8.24-8.09,23.06-26.13,28.62-36.25,5.7-10.34,12.07-18.71,17.51-43.87C296.6,15,296.26,6.07,296.6,1.39a.36.36,0,0,0-.66-.23c-3.47,4.87-18.32,25.34-32.23,38-16.3,14.82-35.29,28-42.7,33a5.72,5.72,0,0,1-6.39,0c-7.42-5-26.4-18.15-42.7-33C158,26.5,143.15,6,139.69,1.16a.36.36,0,0,0-.66.23c.34,4.68,0,13.59,2.79,26.5,5.43,25.16,11.81,33.53,17.5,43.87C164.89,81.88,179.71,99.92,188,108c6.69,6.56,29.86,22.65,29.86,22.65v.05"/><path style="fill:#a3b578;fill-opacity:0.15;stroke:#c8d3ac;stroke-miterlimit:10;stroke-width:2px" d="M434,43.87c-8,.66-35.4,0-70.34,8.94-9.91,2.55-25.88,6.42-42.75,12.53A223.69,223.69,0,0,1,287,87c-6.68,3.52-19.42,8.59-32.17,13.36-2.63,3-5.1,5.63-7.16,7.65-1.31,1.28-3.23,2.92-5.49,4.73,17.93-2.44,43-6.18,65.42-10.7a391,391,0,0,0,62.2-18.16c33.79-12.6,59.88-35.09,64.69-39.4a.36.36,0,0,0-.27-.63Z"/><path style="fill:#a3b578;fill-opacity:0.15;stroke:#c8d3ac;stroke-miterlimit:10;stroke-width:2px" d="M329.14,58.42A145.21,145.21,0,0,0,342,45.4c5.57-6.43,18.88-20.73,22.91-29.84.15-.34-.09-.69-.43-.55C359,17.31,336,26.88,327.79,30.57c-9.22,4.14-27.45,13-36,18.33-1.43.89-3.26,2.13-5.33,3.59C283,60.6,279.55,65.86,276.3,71.76c-4.17,7.59-13.55,19.64-21.46,28.6C267.59,95.59,280.33,90.52,287,87,298.69,80.85,314.57,71.45,329.14,58.42Z"/><circle style="fill:#a3b578;stroke:#a3b578;stroke-miterlimit:10;stroke-width:2px;opacity:0.6" cx="217.81" cy="67.63" r="14.62"/><circle style="fill:#c8d3ac;stroke:#c8d3ac;stroke-miterlimit:10;stroke-width:2px" cx="217.81" cy="67.63" r="5.3"/></g></g></svg>
